<?xml version="1.0" encoding="iso-8859-1"?>
<!-- Uploaded to: SVG Repo, www.svgrepo.com, Generator: SVG Repo Mixer Tools -->
<svg fill="#000000" height="800px" width="800px" version="1.1" id="Capa_1" xmlns="http://www.w3.org/2000/svg" xmlns:xlink="http://www.w3.org/1999/xlink" 
	 viewBox="0 0 491.1 491.1" xml:space="preserve">
<g>
	<path d="M470.3,46.35H20.9C9.4,46.35,0,55.75,0,67.25v356.6c0,11.5,9.4,20.9,20.9,20.9h448.3c11.5,0,20.9-9.4,21.9-19.8V67.15
		C491.1,55.75,481.7,46.35,470.3,46.35z M245.1,278.85L67.4,86.95h355.4L245.1,278.85z M449.4,119.35v247l-106.3-132.4L449.4,119.35
		z M150.2,237.15L40.7,368.45v-249.1L150.2,237.15z M178.4,267.35l52.1,55.3c8.3,8.3,22.9,8.3,30.2,0l54.2-58.4l111.9,139.7H64.4
		L178.4,267.35z"/>
</g>
</svg>